<?xml version="1.0" encoding="utf-8"?>
<!-- Generator: Adobe Illustrator 21.0.0, SVG Export Plug-In . SVG Version: 6.00 Build 0)  -->
<svg version="1.1" id="Mode_Isolation" xmlns="http://www.w3.org/2000/svg" xmlns:xlink="http://www.w3.org/1999/xlink" x="0px"
	 y="0px" viewBox="0 0 360.9 110" style="enable-background:new 0 0 360.9 110;" xml:space="preserve">
<style type="text/css">
	.st0{fill:#5EB0C8;}
	.st1{fill:#E199BC;}
	.st2{fill:#DF71A3;}
	.st3{fill:#B6D6E6;}
	.st4{fill:#DF7B7B;}
	.st5{fill:#BDD07B;}
	.st6{fill:#BE421C;}
	.st7{fill:#C1D9BD;}
	.st8{fill:#969B21;}
	.st9{fill:#BF5E5E;}
</style>
<g>
	<path class="st0" d="M333.2,41.5l27.7,4.6V12.6c-21.5,4.2-49.1,13.4-69.1,34.1c-7.3,7.6-13.1,16.1-17.6,24.9l30.1,4.9L333.2,41.5z"
		/>
	<polygon class="st1" points="327.2,110 315.8,79.8 337.6,53.3 360.9,57.1 360.9,52.2 335.6,48 310.2,78.8 321.9,110 	"/>
	<path class="st2" d="M131.6,110c-9.5-13.4-24.8-29.8-45.7-36.7c-5.8-1.9-11.7-3-17.6-3.4c-32-2.3-61.8,14.7-61.8,14.7
		s5.4,12.1,16,25.4H131.6z"/>
	<polygon class="st3" points="248.2,110 247.6,108.4 269.3,81.9 303.2,87.4 311.8,110 317,110 306.8,83 267.3,76.6 242.1,107.5 
		243,110 	"/>
	<g>
		<path class="st4" d="M236.6,110l-1.4-3.6l29.7-36.3l4.5,0.7c-12.5-13.8-24.5-21.7-24.5-21.7s-21.7,27.3-25.6,60.9H236.6z"/>
	</g>
	<path class="st5" d="M156.8,110c3.6-30.8-10.2-60-10.2-60s-45.4,16.1-60.8,52.8c-1,2.4-1.8,4.8-2.5,7.2H156.8z"/>
	<path class="st6" d="M131.6,110c-7.1-10-17.4-21.6-30.9-29.8c-6,6.4-11.3,13.9-14.9,22.6c-1,2.4-1.8,4.8-2.5,7.2H131.6z"/>
	<path class="st7" d="M238.7,102.1c-6.2-9.6-14.5-19-25.4-25.6c-5.1-3-10.4-5.3-15.8-6.9c-29.6-8.9-61.1,0.7-61.1,0.7
		s4.1,20.3,16.6,39.7h83.6l-1.4-3.6L238.7,102.1z"/>
	<path class="st8" d="M156.8,110c1.9-16.1-1-31.7-4.1-43c-9.8,1.3-16.3,3.3-16.3,3.3s4.1,20.3,16.6,39.7H156.8z"/>
	<path class="st9" d="M236.6,110l-1.4-3.6l3.5-4.3c-3.7-5.8-8.2-11.5-13.5-16.5c-2.7,7.5-4.9,15.7-5.9,24.4H236.6z"/>
</g>
</svg>
