<?xml version="1.0" encoding="utf-8"?>
<!-- Generator: Adobe Illustrator 21.0.0, SVG Export Plug-In . SVG Version: 6.00 Build 0)  -->
<svg version="1.1" id="Mode_Isolation" xmlns="http://www.w3.org/2000/svg" xmlns:xlink="http://www.w3.org/1999/xlink" x="0px"
	 y="0px" viewBox="0 0 248 125" style="enable-background:new 0 0 248 125;" xml:space="preserve">
<style type="text/css">
	.st0{fill:#D66224;}
	.st1{fill:#5EB0C8;}
	.st2{fill:#725F6A;}
	.st3{fill:#F4C32E;}
	.st4{fill:#DF7B7B;}
	.st5{fill:#BDD07B;}
	.st6{fill:#50996D;}
</style>
<path class="st0" d="M42.8,125c5.1-5.4,9.8-11.6,13.6-18.4c4-7.2,6.8-14.8,8.7-22.4c-5,5.4-9.6,11.3-13.4,18
	c-4.2,7.3-7.2,15-9.4,22.8H42.8z"/>
<path class="st1" d="M184.8,125c4.4-2.8,8.9-5.2,13.2-7.4c-19.3-25.4-45-39.7-45-39.7s-3,4.5-6.8,12c0.1,11.1-1,23.1-4.1,35H184.8z"
	/>
<path class="st2" d="M142.2,125c3.1-11.9,4.1-24,4.1-35c-4.3,8.4-9.6,20.8-13.1,35H142.2z"/>
<path class="st3" d="M0,125h42.4c2.2-7.8,5.2-15.5,9.4-22.8c3.8-6.7,8.4-12.7,13.4-18C74.9,45.9,62,6.3,62,6.3S26.8,14.6,0,38.9V125
	z"/>
<path class="st4" d="M133.1,125c3.5-14.3,8.9-26.6,13.1-35c-0.1-26.5-6.6-47.3-6.6-47.3s-45,9.9-74.5,41.5
	c-1.9,7.6-4.7,15.2-8.7,22.4c-3.8,6.9-8.5,13-13.6,18.4H133.1z"/>
<path class="st5" d="M236.2,125c-1.7-12-4.1-19.8-4.1-19.8s-15.6,3.3-34.2,12.5c1.8,2.4,3.5,4.8,5.2,7.4H236.2z"/>
<path class="st6" d="M197.7,117.8c-4.2,2.1-8.6,4.5-12.9,7.2h18.3c-1.6-2.5-3.3-4.9-5.1-7.2L197.7,117.8z"/>
</svg>
